<?xml version="1.0" encoding="utf-8"?>
<!-- Generator: Adobe Illustrator 21.0.0, SVG Export Plug-In . SVG Version: 6.00 Build 0)  -->
<svg version="1.1" id="Layer_1" xmlns="http://www.w3.org/2000/svg" xmlns:xlink="http://www.w3.org/1999/xlink" x="0px" y="0px"
	 viewBox="0 0 146 36" style="enable-background:new 0 0 146 36;" xml:space="preserve">
<style type="text/css">
	.st0{opacity:0.5;fill:url(#Oval-3_1_);enable-background:new    ;}
	.st1{fill:#FFFFFF;}
</style>
<title>logo_white</title>
<desc>Created with Sketch.</desc>
<g id="Page-1">
	<g id="logo_white" transform="translate(-30.000000, -30.000000)">
		<g transform="translate(30.000000, 30.000000)">
			<g id="symbol">
				
					<linearGradient id="Oval-3_1_" gradientUnits="userSpaceOnUse" x1="-591.3324" y1="391.9273" x2="-591.8343" y2="392.795" gradientTransform="matrix(36 0 0 -36 21315 14143)">
					<stop  offset="0" style="stop-color:#FFFFFF;stop-opacity:0"/>
					<stop  offset="0.4752" style="stop-color:#FFFFFF"/>
					<stop  offset="1" style="stop-color:#FFFFFF;stop-opacity:0"/>
				</linearGradient>
				<ellipse id="Oval-3" class="st0" cx="18" cy="18" rx="18" ry="18"/>
				<path class="st1" d="M33.6,9C29.4,1.7,20-0.8,12.7,3.4C5.4,7.6,2.9,17,7.1,24.3h0L2.4,27c4.2,7.3,13.6,9.8,20.9,5.6
					c7.3-4.2,9.8-13.6,5.6-20.9L33.6,9z"/>
			</g>
			<path id="type" class="st1" d="M52,21.7c0-0.1,0-0.3-0.1-0.3s-0.2-0.2-0.5-0.2c-0.2-0.1-0.5-0.2-0.9-0.2
				c-0.4-0.1-0.8-0.2-1.4-0.3c-0.6-0.1-1-0.3-1.4-0.5c-0.4-0.2-0.7-0.4-0.9-0.7c-0.2-0.3-0.4-0.5-0.5-0.9c-0.1-0.3-0.1-0.7-0.1-1.1
				s0.1-0.8,0.3-1.1c0.2-0.4,0.4-0.7,0.8-1c0.3-0.3,0.7-0.5,1.2-0.7c0.5-0.2,1-0.3,1.7-0.3c0.6,0,1.2,0.1,1.7,0.2
				c0.5,0.1,0.9,0.3,1.2,0.6c0.3,0.2,0.6,0.5,0.8,0.8c0.2,0.3,0.3,0.6,0.3,0.9c0,0.1,0,0.3-0.1,0.4c-0.1,0.1-0.2,0.2-0.4,0.2h-1.5
				c-0.2,0-0.3,0-0.4-0.1c-0.1-0.1-0.2-0.1-0.3-0.2c-0.1-0.1-0.3-0.2-0.5-0.2c-0.2-0.1-0.5-0.1-0.9-0.1s-0.7,0.1-1,0.2
				c-0.3,0.1-0.4,0.3-0.4,0.6c0,0.1,0,0.3,0.1,0.4c0.1,0.1,0.2,0.2,0.4,0.3s0.5,0.2,0.8,0.2s0.8,0.2,1.4,0.3
				c1.1,0.2,1.9,0.6,2.4,1.1c0.5,0.5,0.7,1.2,0.7,1.9c0,0.4-0.1,0.8-0.3,1.1c-0.2,0.4-0.5,0.7-0.8,1c-0.4,0.3-0.8,0.5-1.3,0.7
				c-0.5,0.2-1.1,0.3-1.8,0.3c-0.7,0-1.3-0.1-1.8-0.2s-0.9-0.4-1.3-0.6c-0.4-0.3-0.6-0.5-0.8-0.9c-0.2-0.3-0.3-0.6-0.3-0.9
				c0-0.1,0-0.3,0.1-0.4c0.1-0.1,0.2-0.2,0.4-0.2H48c0.2,0,0.3,0,0.4,0.1c0.1,0.1,0.2,0.2,0.3,0.3c0.1,0.1,0.3,0.2,0.5,0.3
				s0.5,0.1,1,0.1c0.2,0,0.4,0,0.6,0c0.2,0,0.4-0.1,0.6-0.1c0.2-0.1,0.3-0.1,0.4-0.2C51.9,21.9,52,21.8,52,21.7z M58.5,18.9
				c0,0.2,0,0.4,0,0.7c0,0.3,0,0.5,0,0.7c0,0.4,0.1,0.7,0.3,1c0.1,0.3,0.3,0.5,0.5,0.7c0.2,0.2,0.4,0.3,0.7,0.4s0.5,0.1,0.8,0.1
				c0.3,0,0.6,0,0.8-0.1s0.4-0.1,0.6-0.2s0.3-0.2,0.4-0.3c0.1-0.1,0.2-0.3,0.3-0.4c0.1-0.1,0.2-0.2,0.3-0.3c0.1-0.1,0.2-0.2,0.4-0.2
				h1.4c0.1,0,0.3,0.1,0.4,0.2c0.1,0.1,0.2,0.2,0.1,0.4c0,0.3-0.1,0.6-0.3,1s-0.5,0.7-0.8,1.1c-0.4,0.3-0.9,0.6-1.4,0.9
				s-1.3,0.4-2.1,0.4c-0.7,0-1.3-0.1-1.9-0.4c-0.6-0.2-1-0.6-1.5-1s-0.7-0.9-1-1.4c-0.2-0.5-0.4-1.1-0.4-1.7c0-0.2,0-0.5,0-0.8
				c0-0.3,0-0.5,0-0.8c0-0.6,0.2-1.1,0.4-1.7c0.2-0.5,0.6-1,1-1.4c0.4-0.4,0.9-0.7,1.5-1c0.6-0.2,1.2-0.4,1.9-0.4
				c0.8,0,1.5,0.1,2.1,0.4s1.1,0.5,1.4,0.9c0.4,0.3,0.7,0.7,0.8,1.1s0.3,0.7,0.3,1c0,0.1,0,0.3-0.1,0.4s-0.2,0.2-0.4,0.2h-1.4
				c-0.1,0-0.3-0.1-0.4-0.2c-0.1-0.1-0.2-0.2-0.3-0.3c-0.1-0.2-0.2-0.3-0.3-0.4c-0.1-0.1-0.2-0.2-0.4-0.3s-0.3-0.2-0.6-0.2
				s-0.5-0.1-0.8-0.1c-0.3,0-0.5,0-0.8,0.1s-0.5,0.2-0.7,0.4c-0.2,0.2-0.4,0.4-0.5,0.7C58.6,18.2,58.5,18.5,58.5,18.9z M67.5,17.1
				c0.1-0.3,0.2-0.6,0.4-0.9c0.2-0.3,0.4-0.6,0.8-0.9c0.3-0.3,0.7-0.5,1.2-0.7s1.1-0.3,1.7-0.3s1.2,0.1,1.8,0.3
				c0.5,0.2,1,0.4,1.3,0.8s0.7,0.7,0.9,1.2c0.2,0.5,0.3,1.1,0.3,1.7V24c0,0.1-0.1,0.3-0.2,0.4s-0.2,0.2-0.4,0.2h-1.4
				c-0.1,0-0.3-0.1-0.4-0.2s-0.2-0.2-0.2-0.4v-0.6c-0.3,0.4-0.7,0.7-1.2,0.9c-0.5,0.3-1.1,0.4-1.9,0.4c-0.5,0-1-0.1-1.5-0.2
				c-0.4-0.1-0.8-0.4-1.1-0.6c-0.3-0.3-0.5-0.6-0.7-0.9c-0.2-0.4-0.2-0.8-0.2-1.2c0-0.9,0.3-1.6,0.9-2.1c0.6-0.5,1.5-0.8,2.5-1
				l3.1-0.5c0-0.5-0.2-0.9-0.5-1.1c-0.3-0.2-0.8-0.3-1.3-0.3c-0.3,0-0.6,0-0.7,0.1c-0.2,0.1-0.3,0.2-0.5,0.4
				c-0.1,0.1-0.2,0.2-0.3,0.2c-0.1,0-0.2,0.1-0.3,0.1h-1.8c-0.1,0-0.2,0-0.3-0.1C67.5,17.3,67.4,17.2,67.5,17.1z M70.6,22.4
				c0.4,0,0.8-0.1,1.2-0.2c0.3-0.1,0.6-0.3,0.8-0.5c0.2-0.2,0.4-0.4,0.5-0.7c0.1-0.3,0.2-0.5,0.2-0.8v-0.2l-2.6,0.5
				c-0.5,0.1-0.9,0.2-1.1,0.4c-0.2,0.2-0.3,0.4-0.3,0.7c0,0.3,0.1,0.5,0.4,0.6C70,22.4,70.3,22.4,70.6,22.4z M80.8,24
				c0,0.1-0.1,0.3-0.2,0.4s-0.2,0.2-0.4,0.2h-1.4c-0.1,0-0.3-0.1-0.4-0.2s-0.2-0.2-0.2-0.4V11.5c0-0.1,0.1-0.3,0.2-0.4
				c0.1-0.1,0.2-0.2,0.4-0.2h1.4c0.1,0,0.3,0.1,0.4,0.2c0.1,0.1,0.2,0.2,0.2,0.4V24z M83,19.6c0-0.7,0.1-1.4,0.3-2
				c0.2-0.6,0.5-1.2,0.9-1.6s0.9-0.8,1.5-1.1c0.6-0.3,1.2-0.4,1.9-0.4c0.7,0,1.4,0.1,1.9,0.4c0.6,0.3,1.1,0.6,1.5,1
				c0.4,0.4,0.7,1,0.9,1.5s0.3,1.2,0.3,1.9v0.9c0,0.1-0.1,0.3-0.2,0.4c-0.1,0.1-0.2,0.2-0.4,0.2h-6.4c0,0.3,0.1,0.5,0.2,0.8
				c0.1,0.2,0.3,0.4,0.5,0.6c0.2,0.2,0.4,0.3,0.7,0.3s0.5,0.1,0.8,0.1c0.4,0,0.7,0,1-0.1c0.3-0.1,0.5-0.2,0.6-0.3
				c0.1-0.1,0.3-0.2,0.3-0.2c0.1,0,0.2-0.1,0.4-0.1h1.5c0.1,0,0.3,0.1,0.4,0.2s0.2,0.2,0.1,0.4c0,0.2-0.1,0.4-0.3,0.7
				c-0.2,0.3-0.5,0.6-0.8,0.8s-0.8,0.5-1.4,0.7c-0.5,0.2-1.2,0.3-1.9,0.3c-0.7,0-1.4-0.1-1.9-0.4c-0.6-0.2-1.1-0.6-1.5-1.1
				c-0.4-0.5-0.7-1-0.9-1.6C83.1,21,83,20.3,83,19.6z M87.6,16.7c-0.4,0-0.7,0.1-0.9,0.2c-0.3,0.1-0.5,0.2-0.7,0.4
				c-0.2,0.2-0.3,0.4-0.4,0.6s-0.2,0.4-0.2,0.6h4.3c0-0.2-0.1-0.4-0.1-0.6s-0.2-0.4-0.3-0.6c-0.2-0.2-0.4-0.3-0.6-0.4
				C88.4,16.8,88,16.7,87.6,16.7z M98.2,14.4c0.4,0,0.7,0,1.1,0.1c0.3,0.1,0.6,0.2,0.8,0.3c0.2,0.1,0.4,0.2,0.6,0.4
				c0.2,0.1,0.3,0.3,0.4,0.4v-4.1c0-0.1,0.1-0.3,0.2-0.4c0.1-0.1,0.2-0.2,0.4-0.2h1.4c0.1,0,0.3,0.1,0.4,0.2
				c0.1,0.1,0.2,0.2,0.2,0.4V24c0,0.1-0.1,0.3-0.2,0.4c-0.1,0.1-0.2,0.2-0.4,0.2h-1.4c-0.1,0-0.3-0.1-0.4-0.2s-0.2-0.2-0.2-0.4v-0.4
				c-0.1,0.1-0.2,0.2-0.4,0.4c-0.2,0.1-0.4,0.3-0.6,0.4c-0.2,0.1-0.5,0.2-0.8,0.3c-0.3,0.1-0.7,0.1-1.1,0.1c-0.6,0-1.2-0.1-1.7-0.4
				c-0.5-0.2-1-0.6-1.3-1c-0.4-0.4-0.6-0.9-0.9-1.4c-0.2-0.5-0.3-1.1-0.4-1.7c0-0.2,0-0.4,0-0.7c0-0.3,0-0.5,0-0.7
				c0-0.6,0.1-1.1,0.4-1.7c0.2-0.5,0.5-1,0.9-1.4c0.4-0.4,0.8-0.7,1.3-1C97,14.6,97.6,14.4,98.2,14.4z M96.4,19c0,0.4,0,0.7,0,1.1
				c0.1,0.8,0.3,1.4,0.8,1.8c0.4,0.4,1,0.5,1.6,0.5c0.6,0,1.1-0.2,1.6-0.6c0.4-0.4,0.7-0.9,0.7-1.6c0-0.2,0-0.4,0-0.7s0-0.5,0-0.7
				c-0.1-0.7-0.3-1.2-0.7-1.6c-0.4-0.4-0.9-0.6-1.6-0.6c-0.6,0-1.1,0.2-1.6,0.5C96.8,17.6,96.5,18.2,96.4,19z M110.8,16.9
				c-0.8,0-1.3,0.2-1.6,0.5s-0.5,0.9-0.5,1.6v5c0,0.1-0.1,0.3-0.2,0.4s-0.2,0.2-0.4,0.2h-1.4c-0.1,0-0.3-0.1-0.4-0.2
				s-0.2-0.2-0.2-0.4v-8.9c0-0.1,0.1-0.3,0.2-0.4c0.1-0.1,0.2-0.2,0.4-0.2h1.4c0.1,0,0.3,0.1,0.4,0.2c0.1,0.1,0.2,0.2,0.2,0.4v0.4
				c0.3-0.3,0.7-0.5,1.1-0.7c0.4-0.2,0.9-0.2,1.5-0.2h0.9c0.1,0,0.3,0.1,0.4,0.2c0.1,0.1,0.2,0.2,0.2,0.4v1.3c0,0.1-0.1,0.3-0.2,0.4
				s-0.2,0.2-0.4,0.2H110.8z M118.3,14.4c0.7,0,1.3,0.1,1.9,0.3s1.1,0.5,1.5,0.9c0.4,0.4,0.7,0.8,1,1.3c0.2,0.5,0.4,1.1,0.4,1.6
				c0,0.1,0,0.3,0,0.4v1.1c0,0.2,0,0.3,0,0.4c-0.1,0.6-0.2,1.1-0.4,1.6s-0.6,0.9-1,1.3c-0.4,0.4-0.9,0.7-1.5,0.9s-1.2,0.3-1.9,0.3
				s-1.3-0.1-1.9-0.3s-1.1-0.5-1.5-0.9s-0.7-0.8-1-1.3s-0.4-1.1-0.4-1.6c0-0.1,0-0.3,0-0.4c0-0.2,0-0.3,0-0.5c0-0.2,0-0.4,0-0.5
				c0-0.2,0-0.3,0-0.4c0-0.6,0.2-1.1,0.4-1.6c0.2-0.5,0.6-1,1-1.3c0.4-0.4,0.9-0.7,1.5-0.9S117.6,14.4,118.3,14.4z M120.6,18.7
				c0-0.4-0.1-0.7-0.3-1c-0.1-0.3-0.3-0.5-0.5-0.6c-0.2-0.2-0.5-0.3-0.7-0.3c-0.3-0.1-0.5-0.1-0.8-0.1s-0.5,0-0.8,0.1
				c-0.3,0.1-0.5,0.2-0.7,0.3c-0.2,0.2-0.4,0.4-0.5,0.6s-0.2,0.6-0.3,1c0,0.1,0,0.2,0,0.4s0,0.3,0,0.5s0,0.3,0,0.5s0,0.3,0,0.4
				c0,0.4,0.1,0.7,0.3,1s0.3,0.5,0.5,0.6c0.2,0.2,0.5,0.3,0.7,0.3c0.3,0.1,0.5,0.1,0.8,0.1s0.5,0,0.8-0.1c0.3-0.1,0.5-0.2,0.7-0.3
				c0.2-0.2,0.4-0.4,0.5-0.6c0.1-0.3,0.2-0.6,0.3-1c0-0.1,0-0.2,0-0.4v-1C120.7,18.9,120.7,18.8,120.6,18.7z M134.6,24
				c0,0.1-0.1,0.3-0.2,0.4c-0.1,0.1-0.2,0.2-0.4,0.2h-1.4c-0.1,0-0.3-0.1-0.4-0.2c-0.1-0.1-0.2-0.2-0.2-0.4v-4.8
				c0-0.8-0.2-1.4-0.5-1.8c-0.4-0.5-0.9-0.7-1.6-0.7c-0.7,0-1.2,0.2-1.6,0.7c-0.4,0.5-0.6,1.1-0.6,1.8V24c0,0.1-0.1,0.3-0.2,0.4
				s-0.2,0.2-0.4,0.2h-1.4c-0.1,0-0.3-0.1-0.4-0.2s-0.2-0.2-0.2-0.4v-8.9c0-0.1,0.1-0.3,0.2-0.4c0.1-0.1,0.2-0.2,0.4-0.2h1.4
				c0.1,0,0.3,0.1,0.4,0.2c0.1,0.1,0.2,0.2,0.2,0.4v0.4c0.3-0.3,0.7-0.6,1.2-0.8c0.4-0.2,1-0.3,1.6-0.3c0.8,0,1.4,0.1,1.9,0.4
				c0.5,0.2,0.9,0.6,1.3,1c0.3,0.4,0.5,0.9,0.7,1.4s0.2,1.1,0.2,1.7V24z M136.6,19.6c0-0.7,0.1-1.4,0.3-2c0.2-0.6,0.5-1.2,0.9-1.6
				s0.9-0.8,1.5-1.1c0.6-0.3,1.2-0.4,1.9-0.4s1.4,0.1,1.9,0.4c0.6,0.3,1.1,0.6,1.5,1c0.4,0.4,0.7,1,0.9,1.5s0.3,1.2,0.3,1.9v0.9
				c0,0.1-0.1,0.3-0.2,0.4c-0.1,0.1-0.2,0.2-0.4,0.2h-6.4c0,0.3,0.1,0.5,0.2,0.8c0.1,0.2,0.3,0.4,0.5,0.6s0.4,0.3,0.7,0.3
				s0.5,0.1,0.8,0.1c0.4,0,0.7,0,1-0.1s0.5-0.2,0.6-0.3c0.1-0.1,0.3-0.2,0.3-0.2c0.1,0,0.2-0.1,0.4-0.1h1.5c0.1,0,0.3,0.1,0.4,0.2
				c0.1,0.1,0.2,0.2,0.1,0.4c0,0.2-0.1,0.4-0.3,0.7c-0.2,0.3-0.5,0.6-0.8,0.8c-0.4,0.3-0.8,0.5-1.4,0.7s-1.2,0.3-1.9,0.3
				s-1.4-0.1-1.9-0.4c-0.6-0.2-1.1-0.6-1.5-1.1c-0.4-0.5-0.7-1-0.9-1.6C136.8,21,136.6,20.3,136.6,19.6z M141.3,16.7
				c-0.4,0-0.7,0.1-0.9,0.2s-0.5,0.2-0.7,0.4c-0.2,0.2-0.3,0.4-0.4,0.6c-0.1,0.2-0.2,0.4-0.2,0.6h4.3c0-0.2-0.1-0.4-0.1-0.6
				s-0.2-0.4-0.3-0.6c-0.2-0.2-0.4-0.3-0.6-0.4S141.7,16.7,141.3,16.7z"/>
		</g>
	</g>
</g>
</svg>
